<?xml version="1.0" standalone="no"?>
<!DOCTYPE svg PUBLIC "-//W3C//DTD SVG 20010904//EN"
 "http://www.w3.org/TR/2001/REC-SVG-20010904/DTD/svg10.dtd">
<svg version="1.0" xmlns="http://www.w3.org/2000/svg"
 width="512.000000pt" height="512.000000pt" viewBox="0 0 512.000000 512.000000"
 preserveAspectRatio="xMidYMid meet">

<g transform="translate(0.000000,512.000000) scale(0.100000,-0.100000)"
fill="#000000" stroke="none">
<path d="M1925 5106 c-81 -21 -144 -56 -212 -119 -112 -105 -152 -221 -153
-444 l0 -92 -607 -3 c-601 -3 -608 -3 -648 -25 -77 -41 -115 -103 -115 -188 0
-86 40 -150 117 -189 25 -13 64 -16 182 -16 l151 0 2 -1692 3 -1693 23 -73
c92 -298 314 -501 610 -558 109 -21 2455 -21 2564 0 295 57 519 261 610 556
l23 75 3 1693 2 1692 151 0 c128 0 155 3 187 19 73 38 112 102 112 186 0 85
-38 147 -115 188 -40 22 -47 22 -647 25 l-608 3 0 82 c0 221 -36 333 -140 441
-67 70 -149 117 -238 135 -79 16 -1190 14 -1257 -3z m1196 -423 c10 -11 15
-52 17 -125 l4 -108 -582 0 -582 0 4 108 c2 73 7 114 17 125 12 15 64 17 561
17 497 0 549 -2 561 -17z"/>
</g>
</svg>
